/* XPM */
static char *mudlet[] = {
/* columns rows colors chars-per-pixel */
"32 32 145 2 ",
"   c #B49E75",
".  c #ABB56C",
"X  c #BDA57B",
"o  c #BFA87E",
"O  c #BAB074",
"+  c #B3BB74",
"@  c #BFB27D",
"#  c #C1AA7F",
"$  c #C2B67E",
"%  c #93DB4F",
"&  c #9BCE59",
"*  c #94D653",
"=  c #99D357",
"-  c #95DD54",
";  c #97DF58",
":  c #98DF59",
">  c #97E05B",
",  c #99E15D",
"<  c #9EDE65",
"1  c #A5C364",
"2  c #A5D66B",
"3  c #BFC27D",
"4  c #B6CC7D",
"5  c #A8DD71",
"6  c #9CE362",
"7  c #9FE568",
"8  c #A2E56C",
"9  c #A6E572",
"0  c #A9E776",
"q  c #ACE67C",
"w  c #ACE87B",
"e  c #BFAF81",
"r  c #B2BC89",
"t  c #BFBF8C",
"y  c #C3AD83",
"u  c #C4B282",
"i  c #CAB286",
"p  c #C7B189",
"a  c #CBB38A",
"s  c #C4BA8C",
"d  c #CDBD8E",
"f  c #D2B687",
"g  c #D0B78B",
"h  c #D3BA8D",
"j  c #D8BE8E",
"k  c #C4B994",
"l  c #CBBB94",
"z  c #C7BC99",
"x  c #CDBE99",
"c  c #D5BC91",
"v  c #D9BF91",
"b  c #91D38D",
"n  c #8DD494",
"m  c #8FD799",
"M  c #96D992",
"N  c #9BDB96",
"B  c #93D99D",
"V  c #B5CB81",
"C  c #BBCB86",
"Z  c #BCCD8B",
"A  c #ABC694",
"S  c #B5C79B",
"D  c #A3DF97",
"F  c #AEE780",
"G  c #AFE980",
"H  c #B2EA84",
"J  c #B6EA8A",
"K  c #B9EB8E",
"L  c #B4E793",
"P  c #BDEC94",
"I  c #BDEB9B",
"U  c #97DCA3",
"Y  c #99DBA4",
"T  c #9EDEAA",
"R  c #A2DFA7",
"E  c #A2E0AF",
"W  c #B2E6A3",
"Q  c #A5E2B3",
"!  c #A9E4B8",
"~  c #C5C28A",
"^  c #C1CF92",
"/  c #C4C29E",
"(  c #D7C095",
")  c #DCC395",
"_  c #D2C29D",
"`  c #DEC59A",
"'  c #E0C696",
"]  c #E3C895",
"[  c #E0C79A",
"{  c #E3CA9C",
"}  c #E8CE9F",
"|  c #EAD09F",
" . c #C2EE9C",
".. c #C6C1A1",
"X. c #C9C2A4",
"o. c #CDC6A9",
"O. c #E5CDA2",
"+. c #E8CFA2",
"@. c #E7D0A5",
"#. c #EAD1A5",
"$. c #EDD5AA",
"%. c #EFD8AD",
"&. c #F0D9AE",
"*. c #EFD9B1",
"=. c #F3DCB3",
"-. c #F5DFB8",
";. c #C4ECA3",
":. c #C8EFA5",
">. c #C7F0A3",
",. c #CAF0AC",
"<. c #CCF1B0",
"1. c #F7E2BC",
"2. c #BCD4C5",
"3. c #BFD8CB",
"4. c #B1E7C1",
"5. c #B4E8C3",
"6. c #BBEACD",
"7. c #BFEDD1",
"8. c #BBE6E1",
"9. c #BDF1F4",
"0. c #C0D9CC",
"q. c #C9DACD",
"w. c #CFDDD1",
"e. c #D0DED3",
"r. c #D0EBC5",
"t. c #D2F4C4",
"y. c #C7F0DD",
"u. c #CFF2D8",
"i. c #D9F6D0",
"p. c #D9F7DD",
"a. c #C5E6E1",
"s. c #D1F4E5",
"d. c #DBF9E3",
"f. c #D2F5EA",
"g. c #D9F1EE",
"h. c #C4FAFF",
"j. c #CBFAFF",
"k. c #DCFAF5",
"l. c #D3F7F8",
"z. c #D2FBFF",
"x. c #DCFCFF",
"c. c #E3FBF6",
"v. c #E3FDFF",
"b. c #EAFDFF",
"n. c None",
/* pixels */
"n.n.n.n.n.n.n.n.n.n.n.n.n.n.#.&.$.} n.n.n.n.n.n.n.n.n.n.n.n.n.n.",
"n.n.n.n.n.n.n.n.n.n.n.n.n.$.-.1.1.-.+.n.n.n.n.n.n.n.n.n.n.n.n.n.",
"n.n.n.n.n.n.n.n.n.n.| &.} $.1.1.1.1.#.#.&.| n.n.n.n.n.n.n.n.n.n.",
"n.n.n.n.n.n.n.n.n.$.=.-.$.O.*.%.%.*.{ $.-.=.#.n.n.n.n.n.n.n.n.n.",
"n.n.n.n.n.n.n.] %.=.-.*.{ g d z z d g O.=.=.=.$.) n.n.n.n.n.n.n.",
"n.n.n.n.n.n.{ { $.=.#.( z 2.8.9.9.8.2.z ( #.=.@.) ) n.n.n.n.n.n.",
"n.n.n.n.n.n.&.&.[ ) / 3.9.9.h.h.9.h.h.h.3.x ) [ $.#.n.n.n.n.n.n.",
"n.n.n.n.n.$.=.&.' k a.j.h.h.h.h.h.h.h.h.h.a.z { =.&.O.n.n.n.n.n.",
"n.n.n.n.{ &.=.O.l a.j.j.j.j.j.j.j.j.j.j.j.j.a._ #.&.$.` n.n.n.n.",
"n.n.n.n.O.&.$.c q.j.z.z.z.z.j.z.z.z.j.z.j.z.j.q.( $.%.{ n.n.n.n.",
"n.n.n.] [ { ) X.l.z.z.z.z.z.z.z.z.z.z.z.z.z.z.l.o.` [ ) j n.n.n.",
"n.n.n.#.&.#.g e.x.x.x.x.x.x.x.x.x.x.x.x.x.x.x.x.e.h O.#.{ n.n.n.",
"n.n.n.$.&.#.~ r.d.k.x.v.v.x.v.x.x.v.v.x.v.x.v.v.g._ #.$.O.n.n.n.",
"n.n.n.#.&.{ ~  .:.<.t.p.c.v.v.b.v.v.v.v.v.k.f.y.6./ { $.O.n.n.n.",
"n.n.n.#.$.) ~ P P P  . .,.t.p.c.b.b.c.s.7.5.! Q E S ` $.O.n.n.n.",
"n.n.n.[ { h 4 G H J J K K  . .<.i.u.5.! E E Y Y U A j { ` n.n.n.",
"' [ v j j f 3 9 0 0 0 H H J K L P I W R U B m m n r h j j j ) v ",
"[ +.+.O.{ ` @ 6 7 8 8 9 0 w w H H J J L D N M b b s O.#.#.@.@.` ",
"i a p p p y . 6 6 6 6 6 7 8 8 0 0 q F J P P I ;.;.t y p p p p a ",
"n.( ` ` ` g 1 , , , , 6 , 6 6 7 8 8 0 q H K K  .>.^ c ` ` ` c n.",
"n.) ` [ [ g 1 > , , , , < , , , < < 8 0 q H J P  .^ x O.O.O.x n.",
"n.( [ [ [ g 1 ; > ; ; ; : : : , : 6 6 7 9 0 H H K Z h [ [ [ v n.",
"n.v ` [ [ g 1 - - - ; ; ; ; : : : , 6 6 7 8 0 H H C d [ { [ c n.",
"n.c ' [ ' i 1 - % - - - ; ; : : , 6 , 6 6 7 8 0 q V c ` { ` c n.",
"n.i g h g y O + = % - - - ; ; ; , , , 6 6 6 7 5 3 $ i h h c a n.",
"j j j j j h g # & % % - - - - ; : , , , 6 6 6 2 i h j h h h h h ",
"[ } { { { { ) $ & % % % - - ; ; : , , , , 6 6 2 u [ } } +.{ { ` ",
") { { ] { { j @ & % % - - - ; ; : : , , , 6 6 2 u ) } { } } } ) ",
"j ' ' ' ' ' f . * - - - - ; ; , : , , , , 6 6 6 + ) { [ [ [ { ) ",
"y X X X # X   n.n.n.n.n.n.n.n.n.n.n.n.n.n.n.n.n.n.X # # # # o y ",
"n.n.n.n.n.n.n.n.n.n.n.n.n.n.n.n.n.n.n.n.n.n.n.n.n.n.n.n.n.n.n.n.",
"n.n.n.n.n.n.n.n.n.n.n.n.n.n.n.n.n.n.n.n.n.n.n.n.n.n.n.n.n.n.n.n."
};
